<?xml version="1.0" standalone="no"?>
<!DOCTYPE svg PUBLIC "-//W3C//DTD SVG 20010904//EN"
 "http://www.w3.org/TR/2001/REC-SVG-20010904/DTD/svg10.dtd">
<svg version="1.0" xmlns="http://www.w3.org/2000/svg"
 width="2049.000000pt" height="2049.000000pt" viewBox="0 0 2049.000000 2049.000000"
 preserveAspectRatio="xMidYMid meet">
<metadata>
Created by potrace 1.14, written by Peter Selinger 2001-2017
</metadata>
<g transform="translate(0.000000,2049.000000) scale(0.100000,-0.100000)"
fill="#000000" stroke="none">
<path d="M5917 20484 c-1 -1 -56 -5 -121 -8 -66 -4 -129 -8 -140 -11 -12 -2
-46 -7 -76 -10 -115 -13 -139 -17 -265 -42 -363 -70 -689 -180 -1010 -339
-154 -76 -212 -108 -277 -150 -21 -13 -40 -24 -43 -24 -13 0 -350 -234 -375
-260 -3 -3 -27 -23 -55 -45 -27 -22 -55 -44 -61 -50 -6 -5 -44 -39 -85 -75
-339 -299 -662 -718 -863 -1120 -26 -52 -52 -102 -56 -110 -8 -14 -16 -32 -68
-150 -75 -170 -186 -514 -216 -670 -2 -14 -10 -50 -16 -80 -17 -83 -18 -88
-34 -190 -8 -52 -18 -126 -21 -165 -4 -38 -9 -88 -12 -110 -8 -72 -10 -458 -2
-550 22 -257 29 -311 65 -495 8 -41 19 -91 24 -110 5 -19 11 -47 14 -61 8 -45
47 -179 91 -314 245 -739 722 -1404 1344 -1872 53 -40 101 -77 106 -81 26 -21
169 -114 245 -159 106 -63 202 -115 465 -253 66 -35 161 -84 210 -110 50 -26
140 -74 200 -105 61 -32 137 -72 170 -90 33 -18 128 -67 210 -111 83 -43 191
-100 240 -126 50 -26 136 -71 192 -100 56 -29 99 -55 97 -58 -3 -3 -20 -5 -37
-6 -143 -4 -374 -32 -542 -66 -55 -11 -111 -22 -125 -24 -57 -11 -293 -76
-395 -109 -279 -93 -584 -235 -836 -391 -140 -87 -379 -257 -445 -319 -6 -5
-36 -30 -65 -54 -56 -47 -326 -314 -369 -366 -14 -17 -48 -57 -76 -90 -303
-356 -584 -869 -722 -1320 -30 -95 -68 -233 -77 -272 -24 -111 -54 -266 -59
-298 -36 -267 -41 -335 -40 -605 0 -268 6 -345 40 -570 16 -106 23 -148 29
-170 2 -8 7 -31 10 -50 7 -38 50 -216 65 -265 99 -323 205 -580 343 -826 329
-592 819 -1099 1397 -1446 110 -66 173 -101 445 -243 114 -60 173 -91 337
-179 40 -21 132 -69 203 -106 72 -37 166 -87 210 -110 44 -23 130 -68 190
-100 224 -117 322 -169 390 -205 39 -21 124 -66 190 -100 66 -34 161 -84 210
-110 50 -26 144 -76 210 -110 66 -34 147 -77 180 -95 80 -43 238 -126 410
-215 77 -40 172 -89 210 -110 39 -21 124 -66 190 -100 66 -35 152 -79 190
-100 126 -66 258 -136 365 -192 137 -72 285 -150 385 -203 45 -24 148 -78 230
-120 83 -43 177 -92 210 -110 33 -18 105 -56 160 -85 55 -29 141 -74 190 -100
50 -26 149 -78 220 -115 72 -37 162 -84 200 -105 39 -21 120 -63 180 -95 61
-32 151 -79 201 -106 51 -26 145 -76 210 -110 66 -34 151 -78 189 -99 39 -20
124 -66 190 -100 66 -35 163 -85 215 -113 52 -27 142 -74 200 -105 178 -92
312 -163 375 -197 33 -18 123 -65 200 -105 77 -40 167 -87 200 -105 60 -32
205 -108 405 -213 58 -30 142 -74 188 -98 45 -24 119 -64 165 -88 203 -108
381 -196 482 -240 61 -26 119 -52 130 -57 237 -105 698 -223 995 -254 36 -4
74 -9 84 -11 122 -23 682 -22 806 1 14 3 50 7 80 10 30 3 66 8 80 10 14 3 41
7 60 10 33 5 170 30 215 39 106 21 398 102 450 125 11 5 49 19 85 31 36 12 79
27 95 35 17 7 79 35 139 60 447 194 855 473 1211 831 131 132 158 162 279 312
175 219 316 441 438 687 38 77 74 148 79 157 5 10 27 64 49 120 23 57 45 112
50 123 36 82 145 468 165 585 3 19 8 42 10 50 2 8 7 35 10 60 3 25 8 54 10 65
3 21 14 98 20 150 20 168 27 573 12 730 -17 180 -39 349 -52 395 -2 8 -7 31
-10 50 -3 19 -11 55 -16 80 -6 25 -13 56 -15 70 -17 96 -124 429 -183 570 -18
41 -39 93 -48 115 -28 68 -159 318 -224 427 -72 120 -171 265 -243 358 -28 36
-58 74 -66 84 -105 135 -361 397 -510 522 -47 39 -134 108 -195 152 -60 45
-114 85 -120 90 -14 10 -145 95 -166 107 -10 6 -44 25 -76 44 -60 36 -81 47
-243 133 -52 28 -126 68 -165 88 -38 21 -119 64 -180 95 -60 31 -141 74 -180
94 -38 20 -137 72 -220 115 -82 43 -172 91 -200 106 -27 15 -126 67 -219 115
-311 162 -348 182 -334 187 7 3 40 6 73 7 33 2 71 4 85 5 122 12 188 19 205
22 10 2 37 6 60 9 501 68 1069 277 1528 564 115 72 330 226 427 306 103 86
293 268 400 385 279 303 530 698 708 1115 57 134 166 450 177 517 3 17 8 34
10 38 2 4 7 22 10 41 3 19 10 50 15 69 5 19 12 49 14 65 3 17 8 40 10 52 3 11
8 43 12 70 5 26 9 50 9 53 1 3 5 32 9 65 5 33 10 68 12 79 19 105 27 628 11
776 -8 79 -25 218 -32 260 -3 14 -7 43 -10 65 -35 225 -150 626 -240 830 -7
17 -27 64 -45 105 -37 85 -166 337 -184 360 -7 8 -32 49 -56 90 -57 98 -234
350 -285 406 -5 6 -23 27 -40 48 -124 157 -418 442 -575 560 -30 23 -64 49
-74 58 -35 32 -278 193 -376 250 -106 62 -281 155 -755 403 -60 32 -141 74
-180 95 -38 21 -133 70 -210 110 -77 40 -171 90 -210 110 -38 20 -124 65 -190
100 -66 34 -151 80 -190 100 -38 21 -118 63 -177 94 -169 88 -306 160 -398
208 -47 25 -139 73 -205 108 -119 62 -244 128 -380 200 -38 21 -142 74 -230
120 -88 45 -182 95 -210 110 -27 15 -99 54 -160 85 -60 32 -141 74 -180 95
-38 20 -128 68 -200 105 -269 140 -342 179 -410 215 -38 21 -124 66 -190 100
-66 34 -160 84 -210 110 -49 26 -144 76 -210 110 -66 34 -151 79 -190 100 -99
53 -219 116 -380 200 -77 40 -176 92 -220 115 -236 125 -315 167 -580 305 -66
34 -156 82 -200 105 -44 23 -134 71 -200 105 -66 35 -156 82 -200 105 -138 73
-245 130 -390 205 -77 40 -153 80 -170 90 -16 9 -102 54 -190 100 -88 46 -182
95 -210 110 -27 15 -122 64 -210 110 -88 45 -173 90 -190 100 -16 10 -93 50
-170 90 -77 40 -194 101 -260 135 -246 128 -504 230 -805 315 -36 11 -244 58
-290 66 -49 9 -74 13 -119 20 -25 4 -53 8 -63 10 -45 8 -152 19 -273 30 -72 6
-432 13 -438 8z m6557 -7080 c3 -26 6 -1459 6 -3185 l0 -3139 -2680 0 -2680 0
0 3185 0 3185 2674 0 2673 0 7 -46z"/>
</g>
</svg>
